<svg xmlns="http://www.w3.org/2000/svg" viewBox="0 0 325.07 306.51"><defs><style>.cls-1{fill:#f19d64;}</style></defs><title>Ativo 4</title><g id="Camada_2" data-name="Camada 2"><g id="Camada_1-2" data-name="Camada 1"><path class="cls-1" d="M162.49,172.87a24.12,24.12,0,1,1,24.12-24.11A24.14,24.14,0,0,1,162.49,172.87Zm0-36.5a12.39,12.39,0,1,0,12.39,12.39A12.4,12.4,0,0,0,162.49,136.37Z"/><path class="cls-1" d="M101.29,129.52a23,23,0,0,1-22.92-25.13A22.65,22.65,0,0,1,88.88,87.1c53.39-33.83,105.47-32.23,154.8,4.79A9.37,9.37,0,0,0,255.86,91l1-1a9.46,9.46,0,0,0,2.74-7.39,9.18,9.18,0,0,0-3.76-6.82c-62-45.76-123.75-44.76-188.7,3a21.14,21.14,0,0,1-25-34.08C127.26-18.4,213.54-14.67,298.57,55.77l-7.48,9c-81.46-67.48-160.61-71-242-10.7A9.41,9.41,0,0,0,60.2,69.31c68.68-50.53,136.85-51.54,202.63-3a21.14,21.14,0,0,1,2.35,31.94l-1,1a21.18,21.18,0,0,1-27.53,2C191,67,144.69,65.61,95.16,97a11,11,0,0,0-5.1,8.42,11.32,11.32,0,0,0,17.72,10.35c35.09-23.71,70.13-25.32,104.14-4.77l-6.06,10c-30.18-18.23-60.11-16.77-91.51,4.45A23.35,23.35,0,0,1,101.29,129.52Z"/><circle class="cls-1" cx="294.83" cy="60.32" r="4.47"/><circle class="cls-1" cx="209.8" cy="116.54" r="4.47"/><path class="cls-1" d="M41.63,248.19H31.49c-.21-4.65-4.34-7.82-10.36-7.82-5.49,0-9.51,2.75-9.51,6.66,0,5.38,4.76,6.23,10.78,7.39,7.4,1.38,20.5,3.6,20.5,16.06,0,9.41-8.88,15.85-21.34,15.85S.11,279.67,0,270.06H10.57c.21,5,4.86,8.24,11.3,8.24,6,0,10.36-2.85,10.36-7.18,0-5.39-5.18-6.24-11.1-7.29C13.31,262.66,1,260.34,1,248.08c0-9.4,8.24-15.63,20.39-15.63C33.18,232.45,41.63,238.89,41.63,248.19Z"/><path class="cls-1" d="M107,259.71c0,15.32-10.89,26.62-26.21,26.62a23.27,23.27,0,0,1-18.17-8.13v28.31H51.87V259.39c0-15.64,11.52-26.94,27.58-26.94S107,243.75,107,259.71Zm-11.1-.32c0-10.25-7-17.54-16.59-17.54s-16.69,7.29-16.69,17.54,7,17.54,16.69,17.54S95.93,269.53,95.93,259.39Z"/><path class="cls-1" d="M116.63,285.38V253.47c0-12.68,8.67-20.07,23.67-20.07v9.08c-8,0-12.79,4.12-12.79,11.94v31Z"/><path class="cls-1" d="M199,262.77H154.66a16.87,16.87,0,0,0,17.12,14.68c7.4,0,13.74-4.64,15.74-10.88h11c-3,11.52-14,19.76-26.83,19.76-16.07,0-27.79-11.3-27.79-26.94s11.72-26.94,27.79-26.94,27.57,11.3,27.68,27A17.36,17.36,0,0,1,199,262.77ZM155,254.42H188.9c-1.8-7.71-8.56-13.1-17.12-13.1A16.86,16.86,0,0,0,155,254.42Z"/><path class="cls-1" d="M261.58,259.39v26H250.8V278.2c-4.22,5-11.2,8.13-19.12,8.13-14.58,0-25.25-11.3-25.25-26.94s11.51-26.94,27.57-26.94S261.58,243.75,261.58,259.39Zm-10.78,0c0-10.14-7-17.54-16.69-17.54s-16.59,7.4-16.59,17.54,7,17.54,16.59,17.54S250.8,269.64,250.8,259.39Z"/><path class="cls-1" d="M325.07,212.27v47.12c0,15.64-11.52,26.94-27.57,26.94s-27.58-11.3-27.58-27.26c0-15.32,10.88-26.62,26.2-26.62a23.27,23.27,0,0,1,18.17,8.13V212.27Zm-10.78,47.12c0-10.14-7-17.54-16.69-17.54S281,249.25,281,259.39s7,17.54,16.59,17.54S314.29,269.64,314.29,259.39Z"/></g></g></svg>